<svg width="100" height="100" viewBox="0 0 100 100" fill="none" xmlns="http://www.w3.org/2000/svg">
<circle cx="50" cy="50" r="50" fill="#F4DFC8"/>
<path d="M36.025 53.44C35.4183 53.3967 33.555 53.375 30.435 53.375C27.315 53.375 25.495 53.4617 24.975 53.635C22.6783 61.175 21.3783 66.6133 21.075 69.95C21.075 69.9933 20.5333 70.015 19.45 70.015C18.41 70.015 17.3267 69.95 16.2 69.82C13.8167 69.4733 12.625 69.17 12.625 68.91C12.625 67.1767 14.1633 62.1283 17.24 53.765C16.6767 53.2883 16.0267 52.3133 15.29 50.84C14.5533 49.3233 14.185 48.0667 14.185 47.07C14.185 47.0267 15.9833 46.94 19.58 46.81C23.1333 36.4967 25.1483 31.0583 25.625 30.495C25.7983 30.365 26.5783 30.17 27.965 29.91C29.3517 29.6067 30.24 29.455 30.63 29.455L30.5 28.61C30.4133 28.0033 30.305 27.3533 30.175 26.66C30.0883 25.9233 30.045 25.4467 30.045 25.23C30.045 25.1 30.4133 24.84 31.15 24.45C33.2733 23.41 35.4617 22.89 37.715 22.89C38.1483 25.4467 38.7117 28.7183 39.405 32.705C40.1417 36.6483 41.55 42.6933 43.63 50.84C45.71 58.9867 47.7033 64.6633 49.61 67.87L50.065 68.65C50.065 68.8667 49.6533 69.235 48.83 69.755C48.0067 70.275 46.9233 70.7733 45.58 71.25C44.2367 71.7267 43.0017 71.965 41.875 71.965C41.485 71.965 40.5317 69.5167 39.015 64.62C37.5417 59.68 36.545 55.9533 36.025 53.44ZM34.465 46.745C32.9917 40.505 32.19 37.0167 32.06 36.28C31.93 35.5433 31.8217 35.175 31.735 35.175C31.6483 35.175 31.54 35.2617 31.41 35.435C31.02 36.1717 30.2833 37.9483 29.2 40.765C28.16 43.5817 27.4883 45.5317 27.185 46.615C31.995 46.615 34.4217 46.6583 34.465 46.745ZM64.4437 27.375L64.0537 54.155C64.0537 57.4917 64.1187 59.9617 64.2487 61.565C64.942 61.7383 66.047 61.825 67.5637 61.825C69.1237 61.825 70.4454 61.695 71.5287 61.435C72.6554 61.175 73.587 60.72 74.3237 60.07C75.1037 59.3767 75.732 58.7483 76.2087 58.185C76.6854 57.5783 77.097 56.69 77.4437 55.52C77.9637 53.96 78.4837 51.9017 79.0037 49.345C79.0037 49.3017 79.307 49.28 79.9137 49.28C80.5637 49.28 81.5604 49.5833 82.9037 50.19C84.2904 50.7533 84.9837 51.1867 84.9837 51.49C84.9837 54.8267 84.8104 58.5967 84.4637 62.8C84.117 67.48 83.6837 69.82 83.1637 69.82C82.687 69.82 81.7337 69.625 80.3037 69.235C78.8737 68.8883 77.7904 68.5633 77.0537 68.26C73.1537 68.91 68.1054 69.2567 61.9087 69.3L58.6587 69.365L56.0587 69.04C55.8854 68.8667 55.7987 66.96 55.7987 63.32L56.0587 38.425C56.0587 33.355 55.9287 30.6683 55.6687 30.365C55.452 30.0183 55.062 29.195 54.4987 27.895C53.9354 26.5517 53.6537 25.685 53.6537 25.295C53.6537 25.1217 54.1304 24.8833 55.0837 24.58C57.467 23.7133 59.5687 23.28 61.3887 23.28C63.2087 23.28 64.162 23.345 64.2487 23.475C64.3787 23.605 64.4437 24.905 64.4437 27.375Z" fill="black"/>
<path d="M87.2006 66.296L87.2486 61.952C87.2486 61.32 87.2406 60.892 87.2246 60.668C87.2086 60.444 87.2006 60.324 87.2006 60.308C87.2006 60.228 87.3326 60.136 87.5966 60.032C87.8686 59.928 88.1086 59.876 88.3166 59.876C88.5246 59.876 88.6286 59.892 88.6286 59.924C88.5886 60.22 88.5686 61.26 88.5686 63.044L88.5446 65.984C88.5446 66.536 88.5526 66.876 88.5686 67.004C88.6086 67.356 88.7246 67.676 88.9166 67.964C88.9166 68.044 88.7526 68.172 88.4246 68.348C88.0966 68.524 87.8166 68.612 87.5846 68.612C87.5206 68.612 87.4486 68.492 87.3686 68.252C87.2886 68.012 87.2406 67.804 87.2246 67.628C87.2086 67.452 87.2006 67.008 87.2006 66.296Z" fill="white"/>
</svg>
